<svg width="64" height="64" viewBox="0 0 64 64" fill="none" xmlns="http://www.w3.org/2000/svg">
    <g>
        <path d="M0 0H64V64H0V0Z" fill="#44475A"/>
        <path d="M46.28 49H17.72V34.04H15V27.24H19.08V15H40.84L44.92 19.08V27.24H49V34.04H46.28V49Z" fill="#F8F8F2"/>
        <path d="M23.84 27.92V19.08H36.08V23.16H40.84V27.92H38.12L36.08 29.96H27.92L25.88 27.92H23.84Z" fill="#6272A4"/>
        <path d="M20.44 36.08V34.04H22.48V36.08H20.44Z" fill="#6272A4"/>
        <path d="M25.2 36.08V34.04H27.24V36.08H25.2Z" fill="#6272A4"/>
        <path d="M29.96 36.08V34.04H32V36.08H29.96Z" fill="#6272A4"/>
        <path d="M34.72 36.08V34.04H36.76V36.08H34.72Z" fill="#6272A4"/>
        <path d="M39.48 36.08V34.04H41.52V36.08H39.48Z" fill="#6272A4"/>
        <path d="M22.48 40.16V38.12H24.52V40.16H22.48Z" fill="#6272A4"/>
        <path d="M27.24 40.16V38.12H29.28V40.16H27.24Z" fill="#6272A4"/>
        <path d="M32 40.16V38.12H34.04V40.16H32Z" fill="#6272A4"/>
        <path d="M36.76 40.16V38.12H38.8V40.16H36.76Z" fill="#6272A4"/>
        <path d="M41.52 40.16V38.12H43.56V40.16H41.52Z" fill="#6272A4"/>
        <path d="M24.52 44.24V42.2H39.48V44.24H24.52Z" fill="#6272A4"/>
    </g>
</svg>
